<svg id="Capa_1" data-name="Capa 1" xmlns="http://www.w3.org/2000/svg" xmlns:xlink="http://www.w3.org/1999/xlink" viewBox="0 0 1384.68 953.04"><defs><style>.cls-1{fill:url(#Degradado_sin_nombre_32);}.cls-2{fill:url(#Degradado_m-a);}.cls-3{fill:url(#Degradado_m-a-2);}.cls-4{fill:url(#Degradado_m-a-3);}.cls-5{fill:none;stroke:#1d1d1b;stroke-miterlimit:10;}.cls-6{fill:#dadada;}.cls-7{fill:url(#Degradado_m-a-4);}</style><linearGradient id="Degradado_sin_nombre_32" x1="16.32" y1="482.82" x2="382.4" y2="482.82" gradientUnits="userSpaceOnUse"><stop offset="0" stop-color="#b9ce1d"/><stop offset="1" stop-color="#3aaa35"/></linearGradient><linearGradient id="Degradado_m-a" x1="497.62" y1="1057.83" x2="901.09" y2="1057.83" gradientUnits="userSpaceOnUse"><stop offset="0" stop-color="#36a9e1"/><stop offset="1" stop-color="#662483"/></linearGradient><linearGradient id="Degradado_m-a-2" x1="133.18" y1="862.63" x2="1043.77" y2="862.63" xlink:href="#Degradado_m-a"/><linearGradient id="Degradado_m-a-3" x1="365.45" y1="376.65" x2="1265.53" y2="376.65" xlink:href="#Degradado_m-a"/><linearGradient id="Degradado_m-a-4" x1="1058.3" y1="822.83" x2="1401" y2="822.83" xlink:href="#Degradado_m-a"/></defs><path class="cls-1" d="M276.73,457q13.86-9.75,23.23-16.3t14.62-10.31q9.74-7.11,22.48-21,6-6,13.11-14.61t15.36-19.86q16.86-22.86,16.87-33,0-8.25-7.87-18-7.5-9.74-16.12-12a131.87,131.87,0,0,0-8.61,13.11c-2,3.25-3.81,6-5.44,8.25s-3.06,4.12-4.3,5.62c-.51-1.25-1.13-4.37-1.88-9.37s-1.75-11.86-3-20.61q-4.12-26.6-10.49-36-3.36-6-15.17-13.11a235.44,235.44,0,0,0-26.23-13.49,227.84,227.84,0,0,0-28.66-10.49q-14.25-4.12-22.11-3.75-46.47,0-79.81,20.61-21.36,12.73-44.21,24.92a298.31,298.31,0,0,0-41.41,26.41A135.35,135.35,0,0,0,36.74,336q-11.8,17.61-11,40.47,0,13.49,13.11,35.59,13.86,22.49,25.11,32.6a162,162,0,0,0,17.61,14.05q9,6.18,21.73,13.68t25.67,14.42q12.93,6.94,20,11.06-14.24,10.86-26.79,19.48L96.51,534.92a295.11,295.11,0,0,0-26.42,19.67,147.31,147.31,0,0,0-23,23.79q-8.62,11.25-14.43,20.24T23.07,614q-6.75,13.13-6.75,31.1,0,37.84,20.61,56.2,15.74,13.5,56.2,23.23,40.47,9,67.45,9a239.56,239.56,0,0,0,26.6-1.69q15-1.68,33.35-5.43A470.7,470.7,0,0,0,291,707.65q34.09-12.36,46.09-27.35,9-10.86,12.74-30.35c1.24-6.74,2.25-13.17,3-19.3a146.06,146.06,0,0,0,1.13-17.79q0-23.61-19.49-49.09A235.43,235.43,0,0,0,313.26,539a251.66,251.66,0,0,0-24.91-22.1,212.06,212.06,0,0,0-25.67-17.8A195.21,195.21,0,0,0,238.14,487q5.63-5.25,15.17-12.74T276.73,457Zm-10.61,130.7q15.44,18.46,15.44,33.23V628q0,11.07-6.72,17.79-4.69,4.71-15.77,11.75A107.36,107.36,0,0,1,249,663.39q-4.37,2.19-7.72,3.53a168.1,168.1,0,0,1-20.14,4.87q-11.76,2.18-27.19,3.52-15.1,1.35-27.53,2t-22.16.67q-15.78,0-34.91-8.06-18.81-8.06-18.8-22.16,0-26.17,33.91-58.08a492.2,492.2,0,0,1,68.48-55.39q15.1,5.38,36.59,20.14A186,186,0,0,1,266.12,587.69Zm-41-167.54q-9.07,8.13-16.89,14.85t-14.38,12q-2.51-1.56-8.13-4.84T171,433.91q-9.07-5-17.2-10t-16-10a124.54,124.54,0,0,1-25-21.57q-9.69-11.26-9.69-23.46,0-3.75,5-10.94,8.13-12.51,26.89-25.34a224.08,224.08,0,0,1,41-22.2Q197.93,301,212.63,301a62,62,0,0,1,22.83,4.06,51.11,51.11,0,0,1,29.4,29.4,62,62,0,0,1,4.06,22.83,35.55,35.55,0,0,1-3.44,14.54,93.92,93.92,0,0,1-9.22,15.79A145.23,145.23,0,0,1,242.5,404,215.72,215.72,0,0,1,225.14,420.15Z" transform="translate(-16.32 -232.14)"/><path class="cls-2" d="M571.89,1015.46H834.14v2.76c0,17.08,16.43,30.94,36.69,30.94h0c16.71,0,30.26,11.42,30.26,25.51h0c0,14.09-13.55,25.52-30.26,25.52h-343c-16.71,0-30.26-11.43-30.26-25.52h0c0-14.09,13.55-25.51,30.26-25.51h4C554,1049.16,571.89,1034.07,571.89,1015.46Z" transform="translate(-16.32 -232.14)"/><path class="cls-3" d="M133.18,741.29V916A67.94,67.94,0,0,0,201.12,984h842.65V889.14H201.12V741.29c-9.75,1.59-21.39,3.71-34.52,3.67C153.93,744.93,142.67,742.84,133.18,741.29Z" transform="translate(-16.32 -232.14)"/><path class="cls-4" d="M376.93,372.5h820.66v76.23h67.94V372.51a67.94,67.94,0,0,0-67.94-67.94c-272.12,0-560,0-832.14,0,3.58,3,21.06,14.72,24.22,34.58C392.24,355.23,379.17,367.81,376.93,372.5Z" transform="translate(-16.32 -232.14)"/><path class="cls-5" d="M278.2,786.29" transform="translate(-16.32 -232.14)"/><path class="cls-6" d="M961.1,384.45,472.93,876.75h586.63l-.94-347.87c0-38.05,29.12-68.89,65-68.89h60.65V384.45Z" transform="translate(-16.32 -232.14)"/><path class="cls-7" d="M1400.59,529.37c4.21-38.05-24.9-68.89-60.81-68.89H1123.33c-35.92,0-65,30.84-65,68.89v586.92c0,38,29.11,68.89,65,68.89h216.45c35.91,0,65-30.84,60.81-68.89Zm-170.94,615.38a20,20,0,1,1,19.95-20A20,20,0,0,1,1229.65,1144.75Zm0-62.86a32.15,32.15,0,1,1,32.15-32.15A32.14,32.14,0,0,1,1229.65,1081.89Zm106.21-411.41a22.28,22.28,0,0,1-22.27,22.28H1145.71a22.28,22.28,0,0,1-22.27-22.28h0a22.27,22.27,0,0,1,22.27-22.27h167.88a22.27,22.27,0,0,1,22.27,22.27Zm21.46-90.65a24.3,24.3,0,0,1-24.3,24.3H1126.28a24.3,24.3,0,0,1-24.3-24.3h0a24.3,24.3,0,0,1,24.3-24.3H1333a24.3,24.3,0,0,1,24.3,24.3Z" transform="translate(-16.32 -232.14)"/><polygon class="cls-6" points="921.7 152.28 429.24 644.74 339.49 644.86 831.95 152.4 921.7 152.28"/></svg>