<svg id="Capa_1" data-name="Capa 1" xmlns="http://www.w3.org/2000/svg" xmlns:xlink="http://www.w3.org/1999/xlink" viewBox="0 0 1384.98 280.79"><defs><style>.cls-1{fill:url(#Degradado_sin_nombre_32);}.cls-2{fill:url(#Degradado_m-a);}.cls-3{fill:url(#Degradado_m-a-2);}.cls-4{fill:url(#Degradado_m-a-3);}.cls-5{fill:none;stroke:#1d1d1b;stroke-miterlimit:10;}.cls-6{fill:#dadada;}.cls-7{fill:url(#Degradado_m-a-4);}.cls-8{font-size:173.95px;}.cls-10,.cls-8{fill:#1d1d1b;font-family:SegoePrint, Segoe Print;}.cls-9{letter-spacing:-0.01em;}.cls-10{font-size:53.55px;}.cls-11{letter-spacing:-0.04em;}.cls-12{letter-spacing:-0.04em;}.cls-13{letter-spacing:0.02em;}.cls-14{letter-spacing:0em;}</style><linearGradient id="Degradado_sin_nombre_32" x1="19.45" y1="79.89" x2="119.7" y2="79.89" gradientUnits="userSpaceOnUse"><stop offset="0" stop-color="#b9ce1d"/><stop offset="1" stop-color="#3aaa35"/></linearGradient><linearGradient id="Degradado_m-a" x1="151.25" y1="237.35" x2="261.74" y2="237.35" gradientUnits="userSpaceOnUse"><stop offset="0" stop-color="#36a9e1"/><stop offset="1" stop-color="#662483"/></linearGradient><linearGradient id="Degradado_m-a-2" x1="51.45" y1="183.9" x2="300.82" y2="183.9" xlink:href="#Degradado_m-a"/><linearGradient id="Degradado_m-a-3" x1="115.06" y1="50.81" x2="361.55" y2="50.81" xlink:href="#Degradado_m-a"/><linearGradient id="Degradado_m-a-4" x1="304.8" y1="173" x2="398.65" y2="173" xlink:href="#Degradado_m-a"/></defs><path class="cls-1" d="M90.76,72.81l6.36-4.46q2.56-1.8,4-2.83a44,44,0,0,0,6.15-5.74c1.1-1.1,2.29-2.43,3.59-4s2.71-3.39,4.21-5.44q4.62-6.26,4.62-9a8.1,8.1,0,0,0-2.16-4.93,8.43,8.43,0,0,0-4.41-3.28,36,36,0,0,0-2.36,3.59c-.55.89-1,1.64-1.49,2.26s-.83,1.13-1.18,1.54a17.16,17.16,0,0,1-.51-2.57c-.2-1.37-.48-3.25-.82-5.64q-1.12-7.29-2.87-9.85a11.58,11.58,0,0,0-4.16-3.59,64.82,64.82,0,0,0-7.18-3.7,62.76,62.76,0,0,0-7.85-2.87,20.46,20.46,0,0,0-6.06-1q-12.72,0-21.85,5.65Q51,20.37,44.69,23.71a82.52,82.52,0,0,0-11.34,7.23A37.35,37.35,0,0,0,25,39.67a18.39,18.39,0,0,0-3,11.08q0,3.69,3.6,9.75a41.69,41.69,0,0,0,6.87,8.92,44.41,44.41,0,0,0,4.82,3.85c1.64,1.13,3.63,2.38,6,3.75s4.67,2.68,7,4,4.19,2.27,5.49,3q-3.9,3-7.33,5.34l-7,4.82a81.08,81.08,0,0,0-7.24,5.39,40.31,40.31,0,0,0-6.31,6.52c-1.57,2-2.89,3.89-3.95,5.54s-1.93,3-2.61,4.2a18.33,18.33,0,0,0-1.85,8.52q0,10.37,5.64,15.39,4.32,3.69,15.39,6.36A87.72,87.72,0,0,0,59,148.54a65.78,65.78,0,0,0,7.29-.47c2.73-.3,5.78-.8,9.13-1.48a128.42,128.42,0,0,0,19.29-5.13q9.34-3.39,12.62-7.49a18.32,18.32,0,0,0,3.49-8.32c.34-1.84.62-3.6.82-5.28a39.21,39.21,0,0,0,.31-4.87q0-6.47-5.34-13.45a64.43,64.43,0,0,0-5.79-6.77,67.89,67.89,0,0,0-6.83-6,57.43,57.43,0,0,0-7-4.88A53.61,53.61,0,0,0,80.19,81q1.55-1.44,4.16-3.49T90.76,72.81Zm-2.9,35.79q4.22,5.07,4.22,9.11v1.93a6.61,6.61,0,0,1-1.83,4.87,26.8,26.8,0,0,1-4.33,3.22,31.53,31.53,0,0,1-2.75,1.61c-.8.39-1.51.72-2.12,1a44.35,44.35,0,0,1-5.51,1.33c-2.15.4-4.63.73-7.45,1s-5.27.43-7.54.55-4.29.18-6.07.18a24.88,24.88,0,0,1-9.56-2.2c-3.43-1.47-5.15-3.5-5.15-6.07q0-7.17,9.29-15.9A134.69,134.69,0,0,1,67.81,94a45.9,45.9,0,0,1,10,5.51A51.32,51.32,0,0,1,87.86,108.6ZM76.63,62.72C75,64.21,73.44,65.56,72,66.79s-2.74,2.33-3.94,3.3c-.46-.29-1.2-.73-2.23-1.33s-2.37-1.36-4-2.27-3.23-1.83-4.71-2.74S54.17,61.92,52.74,61a34.08,34.08,0,0,1-6.85-5.91,9.78,9.78,0,0,1-2.66-6.42,6.18,6.18,0,0,1,1.37-3A26.5,26.5,0,0,1,52,38.74a61.47,61.47,0,0,1,11.22-6.08q6-2.56,10-2.57a16.75,16.75,0,0,1,6.25,1.12,13.93,13.93,0,0,1,8.05,8,17,17,0,0,1,1.11,6.25,9.72,9.72,0,0,1-.94,4,26.34,26.34,0,0,1-2.52,4.33,41,41,0,0,1-3.77,4.49A57.86,57.86,0,0,1,76.63,62.72Z" transform="translate(-19.45 -11.24)"/><path class="cls-2" d="M171.59,225.75h71.82v.76c0,4.67,4.5,8.47,10.05,8.47h0c4.57,0,8.28,3.13,8.28,7h0c0,3.86-3.71,7-8.28,7H159.54c-4.58,0-8.29-3.12-8.29-7h0c0-3.86,3.71-7,8.29-7h1.11C166.69,235,171.59,230.85,171.59,225.75Z" transform="translate(-19.45 -11.24)"/><path class="cls-3" d="M51.45,150.67v47.85a18.61,18.61,0,0,0,18.61,18.61H300.82v-26H70.06V150.67a56.18,56.18,0,0,1-9.46,1A56.09,56.09,0,0,1,51.45,150.67Z" transform="translate(-19.45 -11.24)"/><path class="cls-4" d="M118.2,49.67H342.94V70.55h18.61V49.68a18.61,18.61,0,0,0-18.61-18.61c-74.52,0-153.36,0-227.88,0,1,.82,5.76,4,6.63,9.46C122.4,44.94,118.82,48.39,118.2,49.67Z" transform="translate(-19.45 -11.24)"/><path class="cls-5" d="M91.16,163" transform="translate(-19.45 -11.24)"/><path class="cls-6" d="M278.18,53,144.49,187.76H305.14l-.25-95.26c0-10.42,8-18.87,17.8-18.87H339.3V53Z" transform="translate(-19.45 -11.24)"/><path class="cls-7" d="M398.54,92.63a16.78,16.78,0,0,0-16.66-18.86H322.61c-9.84,0-17.81,8.44-17.81,18.86V253.36c0,10.42,8,18.87,17.81,18.87h59.27a16.79,16.79,0,0,0,16.66-18.87ZM351.72,261.16a5.47,5.47,0,1,1,5.47-5.47A5.47,5.47,0,0,1,351.72,261.16Zm0-17.22a8.81,8.81,0,1,1,8.81-8.8A8.8,8.8,0,0,1,351.72,243.94Zm29.09-112.66a6.1,6.1,0,0,1-6.1,6.1h-46a6.1,6.1,0,0,1-6.1-6.1h0a6.1,6.1,0,0,1,6.1-6.1h46a6.1,6.1,0,0,1,6.1,6.1Zm5.88-24.83a6.66,6.66,0,0,1-6.66,6.66H323.41a6.66,6.66,0,0,1-6.65-6.66h0a6.65,6.65,0,0,1,6.65-6.65H380a6.66,6.66,0,0,1,6.66,6.65Z" transform="translate(-19.45 -11.24)"/><polygon class="cls-6" points="252.41 41.7 117.55 176.56 92.97 176.6 227.83 41.73 252.41 41.7"/><text class="cls-8" transform="translate(400.12 194.67) scale(0.95 1)"><tspan class="cls-9">O</tspan><tspan x="137.26" y="0">cho Bits</tspan></text><text class="cls-10" transform="translate(1228.12 199.98) scale(0.95 1)"><tspan class="cls-11">L</tspan><tspan x="31.61" y="0">T</tspan><tspan class="cls-12" x="67.59" y="0">D</tspan><tspan class="cls-13" x="108.03" y="0">A</tspan><tspan class="cls-14" x="150.83" y="0">.</tspan></text></svg>